<?xml version="1.0" encoding="utf-8"?><!-- Generator: Adobe Illustrator 25.2.1, SVG Export Plug-In . SVG Version: 6.00 Build 0)  --><svg xmlns="http://www.w3.org/2000/svg" xmlns:xlink="http://www.w3.org/1999/xlink" viewBox="0 0 50 50" width="500px" height="500px"><path d="M24.6,26.1c-1.3-2-2.2-3.7-3.5-6.8C18.9,14,34.5,9.2,28.2,0c2.8,6.4-9.9,10.3-11,15.6C16.1,20.5,24.6,26.1,24.6,26.1z"/><path d="M35.6,26.3c2.3-0.5,4.2,0.9,4.2,2.5c0,3.6-5.2,7-5.2,7s8.1-0.9,8.1-6.9C42.7,25.1,38.7,24.1,35.6,26.3z"/><path d="M31.8,29.2c0,0,2.5-1.7,3.2-2.4c-6.2,1.3-20.4,1.4-20.4,0.3c0-1,4.6-2,4.6-2S9.1,25,9.1,27.9C9.1,30.9,22.3,31.1,31.8,29.2z	"/><path d="M30.2,32c-5.9,1.9-16.7,1.3-13.5-1.2c-1.6,0-3.9,1.2-3.9,2.4c0,2.3,11.7,4.1,20.3,0.7L30.2,32z"/><path d="M18.2,35.9c-2.1,0-3.5,1.3-3.5,2.3c0,3,12.7,3.3,17.7,0.3l-3.2-2C25.5,38,16,38.2,18.2,35.9z"/><path d="M40.9,40.9c0-1.2-1.4-1.7-1.9-2c2.9,6.7-29.1,6.2-29.1,2.2c0-0.9,2.3-1.8,4.5-1.4l-1.8-1c-4.3-0.7-7.3,1.2-7.3,2.6	C5.4,48.3,40.9,48,40.9,40.9z"/><path d="M44.6,43.2c-5.4,5.1-19.1,7-32.9,3.8C25.5,52.7,44.6,49.5,44.6,43.2z"/><path d="M24.9,16.6c-0.3,3.1,2.9,4.8,3,7.1c0.1,1.9-1.9,3.4-1.9,3.4s3.6-0.7,4.7-3.5c1.2-3.2-2.4-5.3-2-7.9c0.4-2.4,7.9-6.9,7.9-6.9	S25.5,9.5,24.9,16.6z"/></svg>